<?xml version="1.0" encoding="UTF-8" standalone="no"?>
<svg width="6012px" height="904px" viewBox="0 0 6012 904" version="1.1" xmlns="http://www.w3.org/2000/svg" xmlns:xlink="http://www.w3.org/1999/xlink" xmlns:sketch="http://www.bohemiancoding.com/sketch/ns">
    <title>ann-arbor-skyline</title>
    <description>Created with Sketch (http://www.bohemiancoding.com/sketch)</description>
    <defs></defs>
    <g id="Page-1" stroke="none" stroke-width="1" fill="none" fill-rule="evenodd" sketch:type="MSPage">
        <g id="ann-arbor" sketch:type="MSLayerGroup" transform="translate(-2.000000, 1.000000)">
            <g id="ground" transform="translate(0.000000, 873.000000)" sketch:type="MSShapeGroup">
                <rect id="grass" fill="#2E9F31" x="4760" y="0" width="1257" height="30.5669065"></rect>
                <rect id="grass" fill="#2E9F31" x="0.277339346" y="0" width="291.722656" height="30.5669065"></rect>
                <rect id="grass" fill="#2E9F31" x="1933" y="0" width="631" height="30.5669065"></rect>
                <rect id="road" fill="#403D38" x="783.277339" y="0" width="643.222778" height="30.5669065"></rect>
                <rect id="road" fill="#403D38" x="2564" y="0" width="2196" height="30.5669065"></rect>
            </g>
            <g id="gallup-park" transform="translate(4833.751973, 492.156835)" sketch:type="MSShapeGroup">
                <rect id="huron-river" fill="#4A90E2" x="255.525366" y="380.843165" width="761.722661" height="30.5669065"></rect>
                <path d="M255.525366,353.296403 C255.525366,353.296403 510.978128,311.023022 636.386704,311.023022 C764.885681,311.023022 1017.24803,353.296403 1017.24803,353.296403" id="Path-19-copy" stroke="#AD8040" stroke-width="30" stroke-linecap="round"></path>
                <path d="M132.345985,184.722831 C100.729126,179.074707 134.175591,205.103169 132.345985,250.430705 C131.490624,271.621828 122.217863,303.112201 125.455566,310.462131 C135.618675,333.533464 118.907603,413.835645 125.455566,413.835641 L179.009301,413.835641 C169.042279,413.835647 182.673013,189.527025 179.009302,177.324579 C175.34559,165.122133 163.962844,190.370958 132.345985,184.722831 Z" id="tree-shape" stroke="#472D16" stroke-width="2" fill="#A26530"></path>
                <path d="M245.977312,44.2105285 C232.443082,25.7259255 210.326769,11.6888619 183.696708,4.68267575 C172.017779,1.61168227 159.532198,0.0530373384 146.583668,0.0530373384 C104.437817,0.0530373384 64.6523026,16.4604759 47.5758153,40.8833617 L47.1759961,41.451264 C26.4099494,49.4481927 10.4592688,67.1118065 3.80263026,88.9636998 C-3.41866514,112.676708 1.62817512,137.260088 17.6489995,156.411359 C29.6611106,170.772497 42.4307738,177.753992 56.6944982,177.753992 C62.2498804,177.753992 68.0507656,176.716953 74.3426567,174.608924 C91.8259776,167.346564 107.208494,175.331147 121.640563,175.331147 C135.809643,175.331147 144.919534,179.325657 162.576042,170.607063 C180.232551,161.888469 179.641806,162.49579 190.994599,168.552356 C202.347392,174.608921 213.821155,175.025563 218.186372,175.451518 C220.729082,175.701519 221.493648,175.775593 222.160013,176.074976 C232.593891,180.778689 243.645033,183.266348 254.124504,183.266348 C278.997465,183.266348 298.606141,169.726199 305.297851,147.932947 C314.307811,118.608818 306.486787,64.744518 247.159233,45.0500362 L245.977312,44.2105285 Z" id="Shape" fill="#137515"></path>
                <path d="M83.8568757,299.660746 C68.2358527,296.870163 84.760834,309.730112 83.8568757,332.125205 C83.4342653,342.595157 78.8528484,358.153687 80.4525087,361.785086 C85.473822,373.183999 77.2173396,412.859105 80.4525087,412.859102 L106.911941,412.859102 C101.987508,412.859106 108.72208,302.034367 106.911941,296.005473 C105.101802,289.976579 99.4778987,302.451331 83.8568757,299.660746 Z" id="tree-shape" stroke="#472D16" stroke-width="2" fill="#A26530" transform="translate(92.184603, 353.610203) scale(-1, 1) translate(-92.184603, -353.610203) "></path>
                <path d="M139.998998,230.237471 C133.312107,221.104735 122.385043,214.169407 109.22786,210.707843 C103.457621,209.190549 97.2888381,208.420465 90.8913247,208.420465 C70.0682156,208.420465 50.4112837,216.526931 41.9742596,228.593609 L41.7767199,228.874194 C31.5167857,232.825257 23.6359918,241.552364 20.3471293,252.348785 C16.7792852,264.064732 19.2727906,276.210706 27.1882406,285.672824 C33.1230953,292.768269 39.4322357,296.217634 46.4795508,296.217634 C49.2243128,296.217634 52.0903711,295.705261 55.199022,294.663742 C63.8370513,291.075609 71.437131,295.020573 78.5676206,295.020573 C85.5681742,295.020573 90.0691215,296.99415 98.7927182,292.686532 C107.516315,288.378914 107.224444,288.678975 112.833548,291.671358 C118.442652,294.663741 124.111523,294.869592 126.268257,295.080045 C127.52454,295.203563 127.902292,295.240161 128.231524,295.388078 C133.386617,297.712053 138.846683,298.941138 144.024303,298.941138 C156.313351,298.941138 166.001459,292.251321 169.30765,281.483873 C173.759224,266.995625 169.895071,240.382752 140.582953,230.652248 L139.998998,230.237471 Z" id="Shape" fill="#137515" transform="translate(94.793537, 253.644312) scale(-1, 1) translate(-94.793537, -253.644312) "></path>
            </g>
            <g id="big-house" transform="translate(3685.006764, 565.463309)" sketch:type="MSShapeGroup">
                <rect id="bowl" fill="#00274C" x="72.7305524" y="229.576978" width="938.354002" height="107.959712"></rect>
                <g id="columns" transform="translate(449.000000, 204.000000)" stroke="#979797" fill="#D8D8D8">
                    <rect id="Rectangle-68" x="-0.0067643743" y="-0.463309353" width="23" height="134"></rect>
                    <rect id="Rectangle-68-copy" x="53.9932356" y="-0.463309353" width="23" height="134"></rect>
                    <rect id="Rectangle-68-copy-2" x="107.993236" y="-0.463309353" width="23" height="134"></rect>
                    <rect id="Rectangle-68-copy-3" x="163.993236" y="-0.463309353" width="23" height="134"></rect>
                </g>
                <rect id="score-board" stroke="#979797" fill="#00274C" x="393.524239" y="72.1899281" width="297.416009" height="132.673381" rx="4"></rect>
                <g id="west-tower">
                    <rect id="Rectangle-16" fill="#5C3118" x="0" y="0" width="73.3799324" height="337.536691" rx="4"></rect>
                    <path d="M72.7305524,44.8748201 L72.7305524,215.919424 L123.071388,215.919424 C125.27803,215.919424 127.213129,214.142641 127.395036,211.932842 L140.818791,48.8614029 C141.000033,46.659674 139.352153,44.8748201 137.147789,44.8748201 L72.7305524,44.8748201 Z" id="Rectangle-17" fill="#024794"></path>
                </g>
                <g id="east-tower" transform="translate(1012.964487, 169.000000) scale(-1, 1) translate(-1012.964487, -169.000000) translate(942.464487, 0.000000)">
                    <rect id="Rectangle-16" fill="#5C3118" x="0" y="0" width="73.3799324" height="337.536691" rx="4"></rect>
                    <path d="M72.7305524,44.8748201 L72.7305524,215.919424 L123.071388,215.919424 C125.27803,215.919424 127.213129,214.142641 127.395036,211.932842 L140.818791,48.8614029 C141.000033,46.659674 139.352153,44.8748201 137.147789,44.8748201 L72.7305524,44.8748201 Z" id="Rectangle-17" fill="#024794"></path>
                </g>
            </g>
            <rect id="spacer" stroke="#403D38" stroke-width="3" fill="#D8D8D8" sketch:type="MSShapeGroup" x="3074" y="745" width="510" height="158"></rect>
            <g id="belle-tower" transform="translate(2868.000000, 419.181295)" stroke="#403D38" sketch:type="MSShapeGroup">
                <rect id="Rectangle-20" stroke-width="3" fill="#FCEEDF" x="0" y="76.0431655" width="124.680947" height="407.77554"></rect>
                <rect id="Rectangle-21" stroke-width="3" fill="#FCEEDF" x="9.09131905" y="43.2244604" width="106.498309" height="33.818705"></rect>
                <rect id="Rectangle-21-copy" stroke-width="3" fill="#FCEEDF" x="13.6369786" y="21.4618705" width="98.7057497" height="22.7625899"></rect>
                <polygon id="Triangle-1" stroke-width="3" stroke-linecap="round" stroke-linejoin="bevel" fill="#80C0BC" points="63.1826381 0.14676259 107.182638 21.6086331 19.1826381 21.6086331 "></polygon>
                <path d="M63.3145434,155.38705 C77.4809281,155.38705 88.9650507,144.031189 88.9650507,130.023022 C88.9650507,116.014855 77.4809281,104.658993 63.3145434,104.658993 C49.1481587,104.658993 37.6640361,116.014855 37.6640361,130.023022 C37.6640361,144.031189 49.1481587,155.38705 63.3145434,155.38705 Z" id="clock" stroke-width="4" fill="#F9F9F9"></path>
            </g>
            <g id="state-theater" transform="translate(2545.000000, 619.443165)" sketch:type="MSShapeGroup">
                <rect id="body" stroke="#626161" stroke-width="3" fill="#FABF64" x="0" y="52.028777" width="248.712514" height="231.528058"></rect>
                <rect id="south-column" stroke="#626161" stroke-width="3" fill="#FABF64" x="0" y="45.5741007" width="46.7553551" height="155.435971" rx="4"></rect>
                <rect id="north-column" stroke="#626161" stroke-width="3" fill="#FABF64" x="201.957159" y="45.5741007" width="46.7553551" height="155.435971" rx="4"></rect>
                <rect id="Rectangle-11" stroke="#000000" stroke-width="5" fill="#7C7C7C" x="0" y="198.359712" width="248.712514" height="42.923741"></rect>
                <g id="sign" transform="translate(73.379932, 0.000000)">
                    <path d="M57.4441939,10.0653121 L57.4441939,191.856115 L75.626832,181.790803 L75.626832,0 L57.4441939,10.0653121 Z" id="side" stroke="#979797" fill="#FFFB88" transform="translate(66.535513, 95.928058) scale(-1, 1) translate(-66.535513, -95.928058) "></path>
                    <rect id="Rectangle-1" stroke="#979797" fill="#A1DCD6" x="43.5084555" y="0" width="14.2863585" height="181.45036"></rect>
                    <path d="M26.3258174,10.0653121 L26.3258174,191.856115 L44.5084555,181.790803 L44.5084555,0 L26.3258174,10.0653121 Z" id="side" stroke="#979797" fill="#FFFB88"></path>
                    <path d="M0,190.239819 L0,204.21295 L43.5084555,194.773131 L43.5084555,180.8 L0,190.239819 Z" id="Rectangle-7" stroke="#0000FF" fill="#E31F4D"></path>
                    <path d="M58.4441939,190.239819 L58.4441939,204.21295 L101.952649,194.773131 L101.952649,180.8 L58.4441939,190.239819 Z" id="Rectangle-7" stroke="#0000FF" fill="#E31F4D" transform="translate(80.198422, 192.506475) scale(-1, 1) translate(-80.198422, -192.506475) "></path>
                    <rect id="Rectangle-9" stroke="#5D4949" fill="#E31F4D" x="42.8590755" y="180.8" width="16.2344983" height="13.657554"></rect>
                    <rect id="Rectangle-4" stroke="#979797" fill="#E41F4D" x="37.6640361" y="12.3568345" width="25.3258174" height="5.85323741"></rect>
                    <rect id="Rectangle-4-copy" stroke="#979797" fill="#E41F4D" x="37.6640361" y="22.7625899" width="25.3258174" height="5.85323741"></rect>
                    <rect id="Rectangle-4" stroke="#979797" fill="#E31F4D" x="38.313416" y="32.5179856" width="25.3258174" height="5.85323741"></rect>
                </g>
            </g>
            <g id="tree-one" transform="translate(21.272830, 555.358273)" sketch:type="MSShapeGroup">
                <path d="M2110.28987,154.705044 C2083.34607,149.973392 2111.84906,171.778444 2110.28987,209.751078 C2109.56094,227.503703 2101.65871,253.884409 2104.41787,260.04173 C2113.07885,279.36948 2098.83772,346.64173 2104.41787,346.641727 L2150.05623,346.641727 C2141.56236,346.641732 2153.17843,158.729704 2150.05623,148.507242 C2146.93402,138.28478 2137.23368,159.4367 2110.28987,154.705044 Z" id="tree-shape" stroke="#472D16" stroke-width="2" fill="#A26530"></path>
                <path d="M2207.12619,36.992442 C2195.59236,21.5071736 2176.74489,9.74778126 2154.05082,3.87842756 C2144.09807,1.30573728 2133.45789,0 2122.42319,0 C2086.5066,0 2052.60149,13.7451473 2038.04896,34.2051454 L2037.70823,34.6808992 C2020.01146,41.3802364 2006.41833,56.1777303 2000.74556,74.4839084 C1994.59159,94.3492143 1998.8925,114.943665 2012.5454,130.987427 C2022.78209,143.018309 2033.66437,148.866978 2045.81987,148.866978 C2050.55416,148.866978 2055.49765,147.99821 2060.85959,146.232233 C2075.75883,140.148273 2088.86777,146.837267 2101.16674,146.837267 C2113.24159,146.837267 2121.00502,150.183623 2136.05185,142.879718 C2151.09868,135.575814 2150.59525,136.084591 2160.27007,141.158411 C2169.94489,146.232231 2179.7228,146.581268 2183.44282,146.938106 C2185.60971,147.147541 2186.26128,147.209596 2186.82915,147.460401 C2195.72087,151.400884 2205.13863,153.484892 2214.06921,153.484892 C2235.26588,153.484892 2251.97634,142.141784 2257.679,123.884733 C2265.35726,99.3187728 2258.69221,54.194561 2208.13342,37.6957302 L2207.12619,36.992442 Z" id="Shape" fill="#137515"></path>
                <path d="M108.841888,277.241325 L114.006104,342.588547 C114.014036,342.638652 114.018038,342.688998 114.018038,342.739568 C114.018038,344.894671 106.749606,346.641727 97.78354,346.641727 C88.8174737,346.641727 81.5490417,344.894671 81.5490417,342.739568 C81.5490417,342.703006 81.5511338,342.666561 81.5552906,342.630241 L81.5552906,342.630241 L85.3261882,276.656558 L85.5358872,276.624862 L85.5358872,276.624862 L82.4021119,256.838984 L88.1745768,255.924715 L91.3148141,275.751393 L96.3327534,274.992945 L99.5538582,248.759152 L106.643793,249.629686 L103.752511,273.177291 L111.770898,264.578623 L116.520162,269.007384 L108.841888,277.241325 Z" id="Rectangle-67" stroke="#472D16" stroke-width="2" fill="#A26530"></path>
                <path d="M102.128039,255.021532 C91.2692592,265.825288 76.3104279,272.500719 59.794814,272.500719 C26.6203687,272.500719 -0.272829763,245.566945 -0.272829763,212.342446 C-0.272829763,179.117947 26.6203687,152.184173 59.794814,152.184173 C62.3215445,152.184173 64.811837,152.340418 67.256584,152.643788 C73.9548214,138.164332 88.5943377,128.120863 105.576099,128.120863 C128.295219,128.120863 146.822062,146.097203 147.74939,168.622414 C149.261145,168.503662 150.789246,168.443165 152.331454,168.443165 C184.25065,168.443165 210.126268,194.357824 210.126268,226.32518 C210.126268,258.292535 184.25065,284.207194 152.331454,284.207194 C130.83853,284.207194 112.0858,272.457336 102.128039,255.021532 Z" id="Oval-3" fill="#137515"></path>
            </g>
            <g id="angell-hall" transform="translate(1376.305524, 603.981295)" sketch:type="MSShapeGroup">
                <path d="M51.3010147,15.9093525 L26.6245772,15.9093525 L23.2424525,15.9093525 C21.0244182,15.9093525 19.9776705,17.5438833 20.8879046,19.5601793 L24.0270575,26.5138427 L24.0270575,26.5138427 L24.0270575,50.028777 L24.0270575,50.028777 L6.16910936,50.028777 L1.56749824,50.028777 C-0.629491345,50.028777 -1.60297049,51.6154101 -0.58322023,53.5726213 L3.24689966,60.9237873 L3.24689966,60.9237873 L3.24689966,300.018705 L557.817362,300.018705 L557.817362,60.9239731 L557.817362,60.9239731 L561.647642,53.5726213 C562.668744,51.6128487 561.704484,50.028777 559.496888,50.028777 L554.895152,50.028777 L536.387824,50.028777 L536.387824,26.4654676 L536.387824,26.4654676 L536.387824,25.7364508 L536.387824,25.7364508 L539.175869,19.5601793 C540.087478,17.5407204 539.031944,15.9093525 536.821459,15.9093525 L533.614994,15.9093525 L509.763247,15.9093525 L509.763247,4.00654247 C509.763247,1.79379016 507.963742,0 505.765023,0 L55.2992384,0 C53.0910804,0 51.3010147,1.79667591 51.3010147,4.00654247 L51.3010147,15.9093525 Z" id="Rectangle-27" stroke="#403D38" stroke-width="3" fill="#EFDDB7"></path>
                <rect id="Rectangle-28" fill="#403D38" x="81.1724915" y="97.7568345" width="399.368658" height="202.261871"></rect>
                <g id="columns" transform="translate(94.809470, 96.756835)" fill="#EFDDB7">
                    <path d="M5.19503946,196.408633 L5.19503946,5.85323741 L5.19503946,5.85323741 L4.00299935,5.85323741 C1.78735142,5.85323741 0,4.0618228 0,1.8520009 L0,0 L28.572717,0 L28.572717,1.8520009 C28.572717,4.06526858 26.7805132,5.85323741 24.5697177,5.85323741 L23.3776776,5.85323741 L23.3776776,196.408633 L24.5697177,196.408633 C26.7853656,196.408633 28.572717,198.200048 28.572717,200.40987 L28.572717,202.261871 L0,202.261871 L0,200.40987 C0,198.196602 1.79220385,196.408633 4.00299935,196.408633 L5.19503946,196.408633 Z" id="column"></path>
                    <path d="M53.8985344,196.408633 L53.8985344,5.85323741 L53.8985344,5.85323741 L52.7064943,5.85323741 C50.4908463,5.85323741 48.7034949,4.0618228 48.7034949,1.8520009 L48.7034949,0 L77.276212,0 L77.276212,1.8520009 C77.276212,4.06526858 75.4840081,5.85323741 73.2732126,5.85323741 L72.0811725,5.85323741 L72.0811725,196.408633 L73.2732126,196.408633 C75.4888605,196.408633 77.276212,198.200048 77.276212,200.40987 L77.276212,202.261871 L48.7034949,202.261871 L48.7034949,200.40987 C48.7034949,198.196602 50.4956988,196.408633 52.7064943,196.408633 L53.8985344,196.408633 Z" id="column-copy"></path>
                    <path d="M102.602029,196.408633 L102.602029,5.85323741 L102.602029,5.85323741 L101.409989,5.85323741 C99.1943413,5.85323741 97.4069899,4.0618228 97.4069899,1.8520009 L97.4069899,0 L125.979707,0 L125.979707,1.8520009 C125.979707,4.06526858 124.187503,5.85323741 121.976708,5.85323741 L120.784667,5.85323741 L120.784667,196.408633 L121.976708,196.408633 C124.192355,196.408633 125.979707,198.200048 125.979707,200.40987 L125.979707,202.261871 L97.4069899,202.261871 L97.4069899,200.40987 C97.4069899,198.196602 99.1991937,196.408633 101.409989,196.408633 L102.602029,196.408633 Z" id="column-copy-2"></path>
                    <path d="M151.305524,196.408633 L151.305524,5.85323741 L151.305524,5.85323741 L150.113484,5.85323741 C147.897836,5.85323741 146.110485,4.0618228 146.110485,1.8520009 L146.110485,0 L174.683202,0 L174.683202,1.8520009 C174.683202,4.06526858 172.890998,5.85323741 170.680202,5.85323741 L169.488162,5.85323741 L169.488162,196.408633 L170.680202,196.408633 C172.89585,196.408633 174.683202,198.200048 174.683202,200.40987 L174.683202,202.261871 L146.110485,202.261871 L146.110485,200.40987 C146.110485,198.196602 147.902689,196.408633 150.113484,196.408633 L151.305524,196.408633 Z" id="column-copy-3"></path>
                    <path d="M200.009019,196.408633 L200.009019,5.85323741 L200.009019,5.85323741 L198.816979,5.85323741 C196.601331,5.85323741 194.81398,4.0618228 194.81398,1.8520009 L194.81398,0 L223.386697,0 L223.386697,1.8520009 C223.386697,4.06526858 221.594493,5.85323741 219.383697,5.85323741 L218.191657,5.85323741 L218.191657,196.408633 L219.383697,196.408633 C221.599345,196.408633 223.386697,198.200048 223.386697,200.40987 L223.386697,202.261871 L194.81398,202.261871 L194.81398,200.40987 C194.81398,198.196602 196.606184,196.408633 198.816979,196.408633 L200.009019,196.408633 Z" id="column-copy-4"></path>
                    <path d="M248.712514,196.408633 L248.712514,5.85323741 L248.712514,5.85323741 L247.520474,5.85323741 C245.304826,5.85323741 243.517475,4.0618228 243.517475,1.8520009 L243.517475,0 L272.090192,0 L272.090192,1.8520009 C272.090192,4.06526858 270.297988,5.85323741 268.087192,5.85323741 L266.895152,5.85323741 L266.895152,196.408633 L268.087192,196.408633 C270.30284,196.408633 272.090192,198.200048 272.090192,200.40987 L272.090192,202.261871 L243.517475,202.261871 L243.517475,200.40987 C243.517475,198.196602 245.309678,196.408633 247.520474,196.408633 L248.712514,196.408633 Z" id="column-copy-5"></path>
                    <path d="M297.416009,196.408633 L297.416009,5.85323741 L297.416009,5.85323741 L296.223969,5.85323741 C294.008321,5.85323741 292.22097,4.0618228 292.22097,1.8520009 L292.22097,0 L320.793687,0 L320.793687,1.8520009 C320.793687,4.06526858 319.001483,5.85323741 316.790687,5.85323741 L315.598647,5.85323741 L315.598647,196.408633 L316.790687,196.408633 C319.006335,196.408633 320.793687,198.200048 320.793687,200.40987 L320.793687,202.261871 L292.22097,202.261871 L292.22097,200.40987 C292.22097,198.196602 294.013173,196.408633 296.223969,196.408633 L297.416009,196.408633 Z" id="column-copy-6"></path>
                    <path d="M346.768884,196.408633 L346.768884,5.85323741 L346.768884,5.85323741 L345.576844,5.85323741 C343.361196,5.85323741 341.573844,4.0618228 341.573844,1.8520009 L341.573844,0 L370.146561,0 L370.146561,1.8520009 C370.146561,4.06526858 368.354358,5.85323741 366.143562,5.85323741 L364.951522,5.85323741 L364.951522,196.408633 L366.143562,196.408633 C368.35921,196.408633 370.146561,198.200048 370.146561,200.40987 L370.146561,202.261871 L341.573844,202.261871 L341.573844,200.40987 C341.573844,198.196602 343.366048,196.408633 345.576844,196.408633 L346.768884,196.408633 Z" id="column-copy-7"></path>
                </g>
            </g>
            <g id="downtown-building" transform="translate(282.700113, 631.506475)" stroke="#403D38" stroke-width="3" sketch:type="MSShapeGroup">
                <path d="M530.748162,150.083912 C530.748162,150.083912 571.664866,164.623734 592.655094,164.623734 C612.936153,164.623734 654.562024,150.083912 654.562024,150.083912" id="wire"></path>
                <rect id="Rectangle-72" fill="#D8D8D8" x="322.299887" y="126.493525" width="208.700113" height="145.506475"></rect>
                <rect id="Rectangle" fill="#8B6A55" x="0" y="0" width="333.781285" height="20.7064748"></rect>
                <path d="M11.3741202,270.493525 L59.6138492,270.493525 L102.282168,270.493525 L230.29436,270.493525 L274.814992,270.493525 L324.689966,270.493525 L324.689966,31.1611511 L10.3900789,31.1611511 L11.3741202,270.493525 Z M69.4836528,231.471942 L29.222097,231.471942 L29.222097,170.988489 L69.4836528,170.988489 L69.4836528,231.471942 L69.4836528,231.471942 Z M148.058625,231.471942 L107.797069,231.471942 L107.797069,170.988489 L148.058625,170.988489 L148.058625,231.471942 L148.058625,231.471942 Z M226.633596,231.471942 L186.372041,231.471942 L186.372041,170.988489 L226.633596,170.988489 L226.633596,231.471942 L226.633596,231.471942 Z M306.507328,231.471942 L266.245772,231.471942 L266.245772,170.988489 L306.507328,170.988489 L306.507328,231.471942 L306.507328,231.471942 Z M75.3280722,139.771223 L52.5997745,139.771223 L52.5997745,83.8402878 L75.3280722,83.8402878 L75.3280722,139.771223 L75.3280722,139.771223 Z M103.900789,83.8402878 L126.629087,83.8402878 L126.629087,139.771223 L103.900789,139.771223 L103.900789,83.8402878 L103.900789,83.8402878 Z M155.851184,83.8402878 L178.579481,83.8402878 L178.579481,139.771223 L155.851184,139.771223 L155.851184,83.8402878 L155.851184,83.8402878 Z M207.152198,83.8402878 L229.880496,83.8402878 L229.880496,139.771223 L207.152198,139.771223 L207.152198,83.8402878 L207.152198,83.8402878 Z M260.401353,139.771223 L260.401353,83.8402878 L283.129651,83.8402878 L283.129651,139.771223 L260.401353,139.771223 L260.401353,139.771223 Z" id="Shape" fill="#8B6A55"></path>
            </g>
            <g id="tower-plaza" transform="translate(934.560316, 0.000000)" fill="#D8D8D8" sketch:type="MSShapeGroup">
                <rect id="Rectangle-60" stroke="#979797" stroke-width="4" x="81.8218715" y="0" width="12.3382187" height="138.869065"></rect>
                <rect id="Rectangle-62" stroke="#979797" stroke-width="4" x="140.266065" y="32.4460432" width="7.79255919" height="106.423022"></rect>
                <rect id="Rectangle-60-copy" stroke="#979797" stroke-width="4" x="111.043968" y="0" width="12.3382187" height="138.869065"></rect>
                <path d="M285.72717,116.805755 L230.529876,116.805755 L230.529876,116.805755 L230.529876,72.6791367 L223.386697,72.6791367 L223.386697,116.805755 L201.957159,116.805755 L201.957159,140.166906 L305.857948,140.166906 L305.857948,116.805755 L292.870349,116.805755 L292.870349,72.6791367 L285.72717,72.6791367 L285.72717,116.805755 Z" id="Rectangle-63" stroke="#979797" stroke-width="4"></path>
                <rect id="Rectangle-66" stroke="#403D38" stroke-width="3" x="0" y="136.273381" width="335.729425" height="765.726619"></rect>
            </g>
            <g id="tree-two" transform="translate(2278.409245, 683.479137)" sketch:type="MSShapeGroup">
                <path d="M109.114717,149.120462 L114.278933,214.467684 C114.286866,214.517789 114.290868,214.568135 114.290868,214.618705 C114.290868,216.773808 107.022436,218.520863 98.0563698,218.520863 C89.0903035,218.520863 81.8218715,216.773808 81.8218715,214.618705 C81.8218715,214.582143 81.8239635,214.545698 81.8281204,214.509377 L81.8281204,214.509377 L85.599018,148.535695 L85.808717,148.503999 L85.808717,148.503999 L82.6749417,128.71812 L88.4474066,127.803852 L91.5876438,147.63053 L96.6055831,146.872081 L99.8266879,120.638288 L106.916623,121.508823 L104.025341,145.056427 L112.043728,136.45776 L116.792992,140.886521 L109.114717,149.120462 Z" id="Rectangle-67" stroke="#472D16" stroke-width="2" fill="#A26530"></path>
                <path d="M102.400869,126.900668 C91.542089,137.704425 76.5832576,144.379856 60.0676437,144.379856 C26.8931985,144.379856 0,117.446081 0,84.2215827 C0,50.9970841 26.8931985,24.0633094 60.0676437,24.0633094 C62.5943743,24.0633094 65.0846667,24.2195549 67.5294138,24.5229252 C74.2276512,10.0434689 88.8671675,0 105.848929,0 C128.568049,0 147.094892,17.9763395 148.02222,40.5015504 C149.533975,40.3827983 151.062075,40.3223022 152.604284,40.3223022 C184.52348,40.3223022 210.399098,66.2369611 210.399098,98.2043165 C210.399098,130.171672 184.52348,156.086331 152.604284,156.086331 C131.11136,156.086331 112.35863,144.336473 102.400869,126.900668 Z" id="Oval-3" fill="#137515"></path>
            </g>
        </g>
    </g>
</svg>